<svg xmlns="http://www.w3.org/2000/svg" xmlns:xlink="http://www.w3.org/1999/xlink" width="100%" height="100%" version="1.1" viewBox="0 0 700 700" xml:space="preserve" style="fill-rule:evenodd;clip-rule:evenodd;stroke-linejoin:round;stroke-miterlimit:2"><path d="M668.956,211.664l-275,-196.312l0,-0.005c-12.723,-9.08 -27.962,-13.965 -43.6,-13.965c-15.637,-0 -30.875,4.885 -43.6,13.965l-275,196.312l0,0.005c-19.681,14.094 -31.367,36.793 -31.4,60.986l0,353.776c0,19.877 7.902,38.944 21.965,52.999c14.068,14.059 33.141,21.957 53.035,21.957l550,-0c19.895,-0 38.968,-7.897 53.036,-21.957c14.063,-14.055 21.964,-33.122 21.964,-52.999l0,-353.776c-0.033,-24.193 -11.718,-46.892 -31.4,-60.986Zm-418.6,439.34l0,-249.852c0,-6.625 2.634,-12.983 7.322,-17.668c4.687,-4.685 11.049,-7.317 17.678,-7.317l150,0c6.63,0 12.992,2.632 17.679,7.317c4.687,4.685 7.321,11.043 7.321,17.668l0,249.852l-200,0Zm400,-24.584c0,6.626 -2.634,12.978 -7.321,17.668c-4.687,4.685 -11.049,7.318 -17.679,7.318l-125,-0l0,-250.252c0,-19.883 -7.901,-38.944 -21.964,-53.005c-14.068,-14.054 -33.141,-21.951 -53.036,-21.951l-150,0c-19.894,0 -38.967,7.897 -53.035,21.951c-14.063,14.06 -21.965,33.122 -21.965,53.005l0,250.252l-125,-0c-6.629,-0 -12.991,-2.633 -17.678,-7.318c-4.688,-4.69 -7.322,-11.042 -7.322,-17.668l0,-353.776c-0.005,-8.064 3.884,-15.638 10.452,-20.334l275,-196.283c4.242,-3.04 9.331,-4.668 14.549,-4.668c5.218,-0 10.307,1.628 14.549,4.668l275,196.283c6.573,4.691 10.479,12.264 10.474,20.334l-0.024,353.776Z" style="fill-rule:nonzero"/></svg>